<svg width="24" height="20" viewBox="0 0 24 20" fill="none" xmlns="http://www.w3.org/2000/svg">
<path d="M0.408203 0.879589C0.408203 1.29102 0.749774 1.64288 1.15177 1.64288H4.54649L6.15363 12.6717C6.36492 14.098 7.11792 14.992 8.57463 14.992H20.2969C20.6882 14.992 21.0298 14.6706 21.0298 14.239C21.0298 13.807 20.6882 13.4856 20.2969 13.4856H8.7452C8.17263 13.4856 7.8212 13.0836 7.73077 12.4712L7.57006 11.4164H20.3166C21.7832 11.4164 22.5366 10.5122 22.7475 9.07602L23.5511 3.76216C23.5726 3.63601 23.5861 3.5086 23.5913 3.38073C23.5913 2.89859 23.2296 2.56688 22.6772 2.56688H6.28435L6.08335 1.29145C5.98306 0.517875 5.70192 0.125732 4.67763 0.125732H1.15135C0.749775 0.125732 0.408203 0.477589 0.408203 0.879589ZM7.7312 18.2466C7.7312 19.1607 8.45463 19.8739 9.36835 19.8739C9.58254 19.8756 9.79494 19.8348 9.99317 19.7536C10.1914 19.6725 10.3715 19.5527 10.523 19.4012C10.6744 19.2497 10.7942 19.0696 10.8754 18.8714C10.9565 18.6732 10.9974 18.4608 10.9956 18.2466C10.9966 18.0326 10.9552 17.8206 10.8737 17.6227C10.7923 17.4248 10.6725 17.2451 10.5212 17.0938C10.3699 16.9425 10.1901 16.8226 9.99222 16.7412C9.79435 16.6598 9.58231 16.6183 9.36835 16.6193C8.45463 16.6193 7.7312 17.3427 7.7312 18.2466ZM17.1229 18.2466C17.1229 19.1607 17.8562 19.8739 18.7601 19.8739C19.6742 19.8739 20.3972 19.1607 20.3972 18.2466C20.3972 17.3423 19.6742 16.6193 18.7601 16.6193C17.8562 16.6193 17.1229 17.3427 17.1229 18.2466Z" fill="black"/>
</svg>
