<svg width="14" height="14" viewBox="0 0 14 14" fill="none" xmlns="http://www.w3.org/2000/svg">
<path d="M9.65784 7.52881L9.39242 7.79306C9.39242 7.79306 8.76067 8.42073 7.03692 6.7069C5.31317 4.99306 5.94492 4.3654 5.94492 4.3654L6.11176 4.19856C6.52417 3.78906 6.56326 3.13106 6.20334 2.6504L5.46834 1.66865C5.02267 1.07365 4.16226 0.994897 3.65184 1.5024L2.73601 2.4124C2.48342 2.6644 2.31426 2.9899 2.33467 3.35156C2.38717 4.27731 2.80601 6.26823 5.14167 8.59106C7.61909 11.0539 9.94367 11.1519 10.8939 11.0632C11.1949 11.0352 11.4563 10.8824 11.6668 10.6724L12.4952 9.84873C13.0552 9.29281 12.8977 8.33906 12.1813 7.94998L11.0672 7.3439C10.597 7.08898 10.0253 7.16365 9.65784 7.52881Z" fill="#7C7C7C"/>
</svg>
