<svg width="21" height="18" viewBox="0 0 21 18" fill="none" xmlns="http://www.w3.org/2000/svg">
<path d="M0 0.687122C0 1.06213 0.309406 1.38284 0.67355 1.38284H3.74859L5.20438 11.4354C5.39577 12.7354 6.07786 13.5503 7.3974 13.5503H18.0158C18.3702 13.5503 18.6796 13.2573 18.6796 12.8639C18.6796 12.4702 18.3702 12.1772 18.0158 12.1772H7.55191C7.03326 12.1772 6.71492 11.8108 6.63301 11.2526L6.48743 10.2912H18.0337C19.3621 10.2912 20.0446 9.46698 20.2356 8.15797L20.9635 3.31452C20.983 3.19953 20.9952 3.08341 21 2.96685C21 2.52739 20.6723 2.22504 20.1719 2.22504H5.32279L5.14072 1.06252C5.04988 0.357429 4.79521 0 3.86738 0H0.673162C0.309406 0 0 0.320709 0 0.687122ZM6.6334 16.5167C6.6334 17.3499 7.2887 18 8.11637 18C8.31039 18.0016 8.50279 17.9643 8.68236 17.8903C8.86192 17.8164 9.02505 17.7072 9.16225 17.5691C9.29945 17.4311 9.40797 17.2669 9.48148 17.0862C9.55499 16.9055 9.59202 16.712 9.59042 16.5167C9.59129 16.3217 9.55376 16.1284 9.47999 15.9481C9.40622 15.7677 9.29768 15.6039 9.16063 15.466C9.02357 15.328 8.86073 15.2188 8.6815 15.1446C8.50226 15.0704 8.31019 15.0326 8.11637 15.0335C7.2887 15.0335 6.6334 15.6929 6.6334 16.5167ZM15.1407 16.5167C15.1407 17.3499 15.8049 18 16.6237 18C17.4517 18 18.1066 17.3499 18.1066 16.5167C18.1066 15.6925 17.4517 15.0335 16.6237 15.0335C15.8049 15.0335 15.1407 15.6929 15.1407 16.5167Z" fill="white"/>
</svg>
