<svg width="13" height="13" viewBox="0 0 13 13" fill="none" xmlns="http://www.w3.org/2000/svg">
<rect width="13" height="13" rx="6.5" fill="#848484"/>
<path fill-rule="evenodd" clip-rule="evenodd" d="M9.8462 4.15403C9.94468 4.25257 10 4.38621 10 4.52555C10 4.66489 9.94468 4.79853 9.8462 4.89707L5.90901 8.83578C5.85698 8.88785 5.79521 8.92914 5.72722 8.95732C5.65923 8.9855 5.58636 9 5.51277 9C5.43918 9 5.36631 8.9855 5.29832 8.95732C5.23033 8.92914 5.16856 8.88785 5.11653 8.83578L3.16036 6.87921C3.11019 6.83074 3.07018 6.77275 3.04265 6.70864C3.01512 6.64453 3.00063 6.57558 3.00002 6.5058C2.99941 6.43603 3.0127 6.36683 3.03912 6.30225C3.06553 6.23767 3.10453 6.179 3.15385 6.12966C3.20317 6.08032 3.26182 6.0413 3.32638 6.01488C3.39093 5.98846 3.4601 5.97516 3.52985 5.97577C3.5996 5.97637 3.66853 5.99087 3.73261 6.01841C3.7967 6.04595 3.85466 6.08598 3.90312 6.13617L5.51259 7.74627L9.1031 4.15403C9.15188 4.1052 9.2098 4.06646 9.27356 4.04003C9.33731 4.0136 9.40564 4 9.47465 4C9.54366 4 9.612 4.0136 9.67575 4.04003C9.7395 4.06646 9.79742 4.1052 9.8462 4.15403Z" fill="white"/>
</svg>
