<svg width="17" height="22" viewBox="0 0 17 22" fill="none" xmlns="http://www.w3.org/2000/svg">
<path fill-rule="evenodd" clip-rule="evenodd" d="M0.74977 1.54146C0.0416869 2.24954 0.041687 3.38779 0.041687 5.66671V16.5417C0.041687 18.8206 0.0416869 19.9589 0.74977 20.667C1.45785 21.375 2.5961 21.375 4.87502 21.375H12.125C14.4039 21.375 15.5422 21.375 16.2503 20.667C16.9584 19.9589 16.9584 18.8206 16.9584 16.5417V5.66671C16.9584 3.38779 16.9584 2.24954 16.2503 1.54146C15.5422 0.833374 14.4039 0.833374 12.125 0.833374H4.87502C2.5961 0.833374 1.45785 0.833374 0.74977 1.54146ZM4.87502 5.66671C4.55455 5.66671 4.24721 5.79401 4.0206 6.02062C3.79399 6.24723 3.66669 6.55457 3.66669 6.87504C3.66669 7.19551 3.79399 7.50285 4.0206 7.72946C4.24721 7.95607 4.55455 8.08337 4.87502 8.08337H12.125C12.4455 8.08337 12.7528 7.95607 12.9794 7.72946C13.206 7.50285 13.3334 7.19551 13.3334 6.87504C13.3334 6.55457 13.206 6.24723 12.9794 6.02062C12.7528 5.79401 12.4455 5.66671 12.125 5.66671H4.87502ZM4.87502 10.5C4.55455 10.5 4.24721 10.6273 4.0206 10.854C3.79399 11.0806 3.66669 11.3879 3.66669 11.7084C3.66669 12.0288 3.79399 12.3362 4.0206 12.5628C4.24721 12.7894 4.55455 12.9167 4.87502 12.9167H12.125C12.4455 12.9167 12.7528 12.7894 12.9794 12.5628C13.206 12.3362 13.3334 12.0288 13.3334 11.7084C13.3334 11.3879 13.206 11.0806 12.9794 10.854C12.7528 10.6273 12.4455 10.5 12.125 10.5H4.87502ZM4.87502 15.3334C4.55455 15.3334 4.24721 15.4607 4.0206 15.6873C3.79399 15.9139 3.66669 16.2212 3.66669 16.5417C3.66669 16.8622 3.79399 17.1695 4.0206 17.3961C4.24721 17.6227 4.55455 17.75 4.87502 17.75H9.70835C10.0288 17.75 10.3362 17.6227 10.5628 17.3961C10.7894 17.1695 10.9167 16.8622 10.9167 16.5417C10.9167 16.2212 10.7894 15.9139 10.5628 15.6873C10.3362 15.4607 10.0288 15.3334 9.70835 15.3334H4.87502Z" fill="#515151"/>
</svg>
