<svg width="27" height="27" viewBox="0 0 27 27" fill="none" xmlns="http://www.w3.org/2000/svg">
<path d="M13.5 2.25C10.3933 2.25 7.875 4.76831 7.875 7.875C7.875 10.9817 10.3933 13.5 13.5 13.5C16.6067 13.5 19.125 10.9817 19.125 7.875C19.125 4.76831 16.6067 2.25 13.5 2.25ZM6.89062 15.75C6.25669 15.75 5.64871 16.0018 5.2004 16.45C4.75208 16.8982 4.50015 17.5061 4.5 18.1401V18.5625C4.5 20.6747 5.59238 22.2564 7.2675 23.2763C8.91563 24.2792 11.1296 24.75 13.5 24.75C15.8704 24.75 18.0844 24.2792 19.7325 23.2763C21.4076 22.2564 22.5 20.6747 22.5 18.5625V18.1401C22.4999 17.5061 22.2479 16.8982 21.7996 16.45C21.3513 16.0018 20.7433 15.75 20.1094 15.75H6.89062Z" fill="#515151"/>
</svg>
