<svg width="24" height="24" viewBox="0 0 24 24" fill="none" xmlns="http://www.w3.org/2000/svg">
<path d="M0.408203 2.87983C0.408203 3.29126 0.749774 3.64312 1.15177 3.64312H4.54649L6.15363 14.672C6.36492 16.0983 7.11792 16.9923 8.57463 16.9923H20.2969C20.6882 16.9923 21.0298 16.6708 21.0298 16.2393C21.0298 15.8073 20.6882 15.4858 20.2969 15.4858H8.7452C8.17263 15.4858 7.8212 15.0838 7.73077 14.4714L7.57006 13.4167H20.3166C21.7832 13.4167 22.5366 12.5124 22.7475 11.0763L23.5511 5.7624C23.5726 5.63625 23.5861 5.50885 23.5913 5.38098C23.5913 4.89883 23.2296 4.56712 22.6772 4.56712H6.28435L6.08335 3.29169C5.98306 2.51812 5.70192 2.12598 4.67763 2.12598H1.15135C0.749775 2.12598 0.408203 2.47783 0.408203 2.87983ZM7.7312 20.2468C7.7312 21.161 8.45463 21.8741 9.36835 21.8741C9.58254 21.8759 9.79494 21.835 9.99317 21.7539C10.1914 21.6727 10.3715 21.5529 10.523 21.4014C10.6744 21.25 10.7942 21.0699 10.8754 20.8717C10.9565 20.6734 10.9974 20.461 10.9956 20.2468C10.9966 20.0329 10.9552 19.8208 10.8737 19.623C10.7923 19.4251 10.6725 19.2453 10.5212 19.094C10.3699 18.9427 10.1901 18.8229 9.99222 18.7415C9.79435 18.66 9.58231 18.6186 9.36835 18.6195C8.45463 18.6195 7.7312 19.343 7.7312 20.2468ZM17.1229 20.2468C17.1229 21.161 17.8562 21.8741 18.7601 21.8741C19.6742 21.8741 20.3972 21.161 20.3972 20.2468C20.3972 19.3425 19.6742 18.6195 18.7601 18.6195C17.8562 18.6195 17.1229 19.343 17.1229 20.2468Z" fill="black"/>
</svg>
