<svg width="17" height="14" viewBox="0 0 17 14" fill="none" xmlns="http://www.w3.org/2000/svg">
<path d="M9.63789 2.42177C9.51865 1.9853 9.55304 0.999992 8.59449 0.999992C7.76894 0.999992 7.66575 2.42177 7.52128 2.42177C7.35158 2.46305 7.16476 1.65049 6.36551 1.86223C5.87935 1.99103 5.70966 2.42177 5.63169 3.24044C5.61473 3.4185 5.36568 3.55294 5.21433 3.62799C4.09984 4.18065 1.5625 5.64876 1.23564 8.3726C0.884784 11.2964 3.78338 13.4818 8.69539 13.4818" stroke="white" stroke-width="1.01516"/>
<path d="M8.50969 13.4795C13.4217 13.4795 16.3203 11.2941 15.9694 8.37029C15.6426 5.64645 13.1052 4.17835 11.9907 3.62569C11.8394 3.55063 11.5903 3.4162 11.5734 3.23814C11.4954 2.41947 11.329 1.9755 10.8396 1.85993C10.014 1.66501 9.62876 2.49744 9.62876 2.39424L9.57373 2.0411" stroke="white" stroke-width="1.01516"/>
<path fill-rule="evenodd" clip-rule="evenodd" d="M11.5713 3.48361L11.1415 1.97114H10.441L9.58126 2.3214L9.19916 1.20695H8.19616L7.52749 1.97114H6.76329L5.90358 2.19403L5.5374 3.34032L2.65575 5.21896L1 8.57823L1.90748 11.2529L5.18715 13.0997L10.2977 13.45L14.2142 12.1126L15.9018 9.75637V7.60707L14.2142 4.82095L11.5713 3.48361ZM9.16363 4.40077C9.16363 4.12044 8.93638 3.89319 8.65605 3.89319C8.37573 3.89319 8.14848 4.12044 8.14848 4.40077V5.51526C8.14848 5.79559 8.37573 6.02284 8.65605 6.02284C8.93638 6.02284 9.16363 5.79559 9.16363 5.51526V4.40077ZM7.17496 3.99905C7.37402 4.19643 7.37539 4.51781 7.17801 4.71687L6.1048 5.79925C5.90742 5.99832 5.58605 5.99969 5.38698 5.80231C5.18792 5.60493 5.18655 5.28356 5.38393 5.08449L6.45714 4.00211C6.65452 3.80304 6.97589 3.80168 7.17496 3.99905ZM9.95648 4.71688C9.7591 4.51781 9.76047 4.19644 9.95953 3.99906C10.1586 3.80168 10.48 3.80305 10.6773 4.00211L11.7506 5.0845C11.9479 5.28356 11.9466 5.60494 11.7475 5.80232C11.5484 5.99969 11.2271 5.99833 11.0297 5.79926L9.95648 4.71688Z" fill="white"/>
<path d="M11.1415 1.97114L11.1999 1.95453L11.1874 1.91038H11.1415V1.97114ZM11.5713 3.48361L11.5129 3.50022L11.5202 3.52581L11.5439 3.53782L11.5713 3.48361ZM10.441 1.97114V1.91038H10.4291L10.4181 1.91487L10.441 1.97114ZM9.58126 2.3214L9.52379 2.3411L9.54464 2.40192L9.60418 2.37766L9.58126 2.3214ZM9.19916 1.20695L9.25664 1.18724L9.24256 1.14619H9.19916V1.20695ZM8.19616 1.20695V1.14619H8.16859L8.15043 1.16694L8.19616 1.20695ZM7.52749 1.97114V2.0319H7.55506L7.57321 2.01115L7.52749 1.97114ZM6.76329 1.97114V1.91038H6.75555L6.74805 1.91233L6.76329 1.97114ZM5.90358 2.19403L5.88833 2.13522L5.8559 2.14363L5.8457 2.17554L5.90358 2.19403ZM5.5374 3.34032L5.57058 3.39122L5.5887 3.37941L5.59528 3.35881L5.5374 3.34032ZM2.65575 5.21896L2.62257 5.16807L2.60862 5.17716L2.60126 5.1921L2.65575 5.21896ZM1 8.57823L0.945503 8.55137L0.934382 8.57393L0.942464 8.59775L1 8.57823ZM1.90748 11.2529L1.84994 11.2724L1.85741 11.2944L1.87767 11.3059L1.90748 11.2529ZM5.18715 13.0997L5.15733 13.1527L5.1693 13.1594L5.18299 13.1603L5.18715 13.0997ZM10.2977 13.45L10.2935 13.5106L10.3057 13.5114L10.3173 13.5075L10.2977 13.45ZM14.2142 12.1126L14.2338 12.1701L14.2522 12.1638L14.2636 12.148L14.2142 12.1126ZM15.9018 9.75637L15.9512 9.79174L15.9625 9.77588V9.75637H15.9018ZM15.9018 7.60707H15.9625V7.5901L15.9537 7.57559L15.9018 7.60707ZM14.2142 4.82095L14.2662 4.78947L14.2571 4.77459L14.2416 4.76674L14.2142 4.82095ZM8.14848 5.51526H8.20923H8.14848ZM8.65605 6.02284V5.96208V6.02284ZM7.17801 4.71687L7.22116 4.75965L7.17801 4.71687ZM6.1048 5.79925L6.06166 5.75648L6.1048 5.79925ZM5.38393 5.08449L5.34078 5.04171L5.38393 5.08449ZM6.45714 4.00211L6.50028 4.04489L6.45714 4.00211ZM9.95953 3.99906L9.91675 3.95591V3.95592L9.95953 3.99906ZM9.95648 4.71688L9.91333 4.75965L9.95648 4.71688ZM10.6773 4.00211L10.6342 4.04489L10.6773 4.00211ZM11.7506 5.0845L11.7937 5.04172L11.7506 5.0845ZM11.0297 5.79926L11.0728 5.75648L11.0297 5.79926ZM11.083 1.98775L11.5129 3.50022L11.6298 3.467L11.1999 1.95453L11.083 1.98775ZM10.441 2.0319H11.1415V1.91038H10.441V2.0319ZM9.60418 2.37766L10.4639 2.02741L10.4181 1.91487L9.55834 2.26513L9.60418 2.37766ZM9.14169 1.22665L9.52379 2.3411L9.63873 2.30169L9.25664 1.18724L9.14169 1.22665ZM8.19616 1.2677H9.19916V1.14619H8.19616V1.2677ZM7.57321 2.01115L8.24188 1.24696L8.15043 1.16694L7.48176 1.93113L7.57321 2.01115ZM6.76329 2.0319H7.52749V1.91038H6.76329V2.0319ZM5.91882 2.25284L6.77854 2.02995L6.74805 1.91233L5.88833 2.13522L5.91882 2.25284ZM5.59528 3.35881L5.96145 2.21252L5.8457 2.17554L5.47953 3.32183L5.59528 3.35881ZM2.68893 5.26986L5.57058 3.39122L5.50422 3.28943L2.62257 5.16807L2.68893 5.26986ZM1.0545 8.60509L2.71025 5.24583L2.60126 5.1921L0.945503 8.55137L1.0545 8.60509ZM1.96502 11.2334L1.05754 8.55871L0.942464 8.59775L1.84994 11.2724L1.96502 11.2334ZM5.21696 13.0468L1.93729 11.2L1.87767 11.3059L5.15733 13.1527L5.21696 13.0468ZM10.3018 13.3894L5.1913 13.0391L5.18299 13.1603L10.2935 13.5106L10.3018 13.3894ZM14.1946 12.0551L10.2781 13.3925L10.3173 13.5075L14.2338 12.1701L14.1946 12.0551ZM15.8524 9.72099L14.1648 12.0773L14.2636 12.148L15.9512 9.79174L15.8524 9.72099ZM15.841 7.60707V9.75637H15.9625V7.60707H15.841ZM14.1622 4.85242L15.8498 7.63855L15.9537 7.57559L14.2662 4.78947L14.1622 4.85242ZM11.5439 3.53782L14.1868 4.87516L14.2416 4.76674L11.5988 3.4294L11.5439 3.53782ZM8.65605 3.95395C8.90283 3.95395 9.10288 4.154 9.10288 4.40077H9.22439C9.22439 4.08688 8.96994 3.83243 8.65605 3.83243V3.95395ZM8.20923 4.40077C8.20923 4.154 8.40928 3.95395 8.65605 3.95395V3.83243C8.34217 3.83243 8.08772 4.08688 8.08772 4.40077H8.20923ZM8.20923 5.51526V4.40077H8.08772V5.51526H8.20923ZM8.65605 5.96208C8.40928 5.96208 8.20923 5.76203 8.20923 5.51526H8.08772C8.08772 5.82914 8.34217 6.08359 8.65605 6.08359V5.96208ZM9.10288 5.51526C9.10288 5.76203 8.90283 5.96208 8.65605 5.96208V6.08359C8.96994 6.08359 9.22439 5.82914 9.22439 5.51526H9.10288ZM9.10288 4.40077V5.51526H9.22439V4.40077H9.10288ZM7.22116 4.75965C7.44216 4.53676 7.44063 4.17691 7.21774 3.95591L7.13218 4.0422C7.30741 4.21595 7.30862 4.49886 7.13487 4.67409L7.22116 4.75965ZM6.14794 5.84203L7.22116 4.75965L7.13487 4.67409L6.06166 5.75648L6.14794 5.84203ZM5.3442 5.84545C5.5671 6.06646 5.92694 6.06492 6.14794 5.84203L6.06166 5.75648C5.88791 5.93171 5.605 5.93292 5.42976 5.75917L5.3442 5.84545ZM5.34078 5.04171C5.11978 5.26461 5.12131 5.62445 5.3442 5.84545L5.42976 5.75917C5.25453 5.58541 5.25332 5.30251 5.42707 5.12727L5.34078 5.04171ZM6.414 3.95933L5.34078 5.04171L5.42707 5.12727L6.50028 4.04489L6.414 3.95933ZM7.21774 3.95591C6.99484 3.73491 6.635 3.73644 6.414 3.95933L6.50028 4.04489C6.67404 3.86965 6.95694 3.86845 7.13218 4.0422L7.21774 3.95591ZM9.91675 3.95592C9.69386 4.17692 9.69233 4.53676 9.91333 4.75965L9.99962 4.6741C9.82587 4.49886 9.82707 4.21595 10.0023 4.0422L9.91675 3.95592ZM10.7205 3.95934C10.4995 3.73644 10.1396 3.73491 9.91675 3.95591L10.0023 4.0422C10.1775 3.86845 10.4605 3.86966 10.6342 4.04489L10.7205 3.95934ZM11.7937 5.04172L10.7205 3.95934L10.6342 4.04489L11.7074 5.12728L11.7937 5.04172ZM11.7903 5.84546C12.0132 5.62446 12.0147 5.26461 11.7937 5.04172L11.7074 5.12728C11.8812 5.30251 11.88 5.58542 11.7047 5.75917L11.7903 5.84546ZM10.9865 5.84204C11.2075 6.06493 11.5674 6.06646 11.7903 5.84546L11.7047 5.75917C11.5295 5.93292 11.2466 5.93172 11.0728 5.75648L10.9865 5.84204ZM9.91333 4.75965L10.9865 5.84204L11.0728 5.75648L9.99962 4.6741L9.91333 4.75965Z" fill="white"/>
</svg>
