<svg width="15" height="14" viewBox="0 0 15 14" fill="none" xmlns="http://www.w3.org/2000/svg">
<path id="Vector" d="M10.341 8.98147L9.96632 9.35453C9.96632 9.35453 9.07443 10.2407 6.64088 7.82111C4.20733 5.40156 5.09922 4.51543 5.09922 4.51543L5.33475 4.2799C5.91699 3.70178 5.97217 2.77283 5.46404 2.09424L4.42639 0.708224C3.79721 -0.131783 2.58249 -0.24296 1.8619 0.473516L0.568945 1.75823C0.212354 2.114 -0.0264717 2.57353 0.00235202 3.08413C0.0764703 4.39108 0.667769 7.20181 3.96521 10.4811C7.46277 13.9581 10.7446 14.0964 12.0861 13.9713C12.511 13.9317 12.88 13.716 13.1773 13.4195L14.3467 12.2567C15.1373 11.4718 14.9149 10.1254 13.9036 9.57606L12.3307 8.72041C11.6669 8.36052 10.8599 8.46593 10.341 8.98147Z" fill="#2A2A2C"/>
</svg>
