<svg width="114" height="114" viewBox="0 0 114 114" fill="none" xmlns="http://www.w3.org/2000/svg">
<g id="Group 1">
<path id="Vector" d="M97.584 47.3129C93.6175 44.8494 90.4469 43.267 88.0118 42.4162C87.3028 38.061 86.9537 33.6548 86.9682 29.2423C86.9682 13.0945 73.4237 0 56.7182 0C40.0126 0 26.4682 13.0945 26.4682 29.2423C26.4682 34.3375 26.0503 38.6236 25.4226 42.4181C22.9913 43.267 19.8188 44.8513 15.8504 47.3148C-4.50028 59.9423 -0.511058 77.6064 2.36269 75.5135C10.033 69.9304 16.289 64.4609 21.0213 59.5944C19.8283 63.837 18.9057 68.0341 18.9057 73.1048C18.9057 85.8571 25.6703 97.0723 35.9118 103.61C36.2843 105.824 36.7607 109.794 35.6282 110.872C34.5392 111.902 31.1626 110.655 29.6236 110.655C25.7913 110.653 22.6869 113.438 22.6869 113.438H52.9407C52.9407 113.438 49.8344 110.653 46.0059 110.653C44.4669 110.653 41.0865 111.9 40.0013 110.87C39.1561 110.072 39.2034 107.679 39.436 105.59C44.6219 108.172 50.4848 109.656 56.7182 109.656C62.9516 109.656 68.8144 108.174 73.9966 105.593C74.2291 107.681 74.2764 110.078 73.4351 110.876C72.3498 111.906 68.9713 110.658 67.4304 110.658C63.6057 110.656 60.4994 113.438 60.4994 113.438H90.7494C90.7494 113.438 87.6431 110.656 83.8146 110.656C82.2775 110.656 78.899 111.904 77.81 110.874C76.6756 109.798 77.152 105.824 77.5264 103.61C87.766 97.0723 94.5307 85.859 94.5307 73.1048C94.5307 68.0341 93.6118 63.837 92.415 59.5944C97.1492 64.4609 103.405 69.9304 111.074 75.5135C113.947 77.6064 117.938 59.9423 97.584 47.3129ZM56.7182 39.7693L48.233 37.6991C48.5582 32.6 52.2393 28.5655 56.7182 28.5655C61.1933 28.5655 64.8743 32.6 65.1995 37.6991L56.7182 39.7693ZM63.0102 40.1815C62.1537 43.301 59.6713 45.5811 56.7182 45.5811C53.7574 45.5811 51.2788 43.301 50.4224 40.1796L56.7182 41.7147L63.0102 40.1815ZM56.7182 106C41.0581 106 26.4682 95.4539 26.4682 73.5869C26.4682 61.4434 34.0307 50.0184 34.0307 31.7398C34.0307 9.65353 50.965 12.4403 52.952 27.484C49.0744 29.195 46.3197 33.4527 46.3197 38.4345V39.1775L48.4164 39.6899C49.1916 44.1083 52.5777 47.4717 56.7182 47.4717C60.8549 47.4717 64.241 44.1083 65.0123 39.6918L67.1166 39.1794V38.4364C67.1166 33.4546 64.3582 29.1969 60.4843 27.4859C62.4676 12.4403 79.4057 9.65731 79.4057 31.7417C79.4057 50.0203 86.9682 61.4453 86.9682 73.5888C86.9682 95.4539 72.382 106 56.7182 106Z" fill="black"/>
<path id="Vector_2" d="M69.9531 33.9727C72.0415 33.9727 73.7344 31.4333 73.7344 28.3008C73.7344 25.1683 72.0415 22.6289 69.9531 22.6289C67.8648 22.6289 66.1719 25.1683 66.1719 28.3008C66.1719 31.4333 67.8648 33.9727 69.9531 33.9727Z" fill="black"/>
<path id="Vector_3" d="M43.4806 22.6289C41.3971 22.6289 39.7031 25.1699 39.7031 28.297C39.7031 31.4317 41.3971 33.9727 43.4806 33.9727C45.5735 33.9727 47.2656 31.4317 47.2656 28.297C47.2656 25.1699 45.5735 22.6289 43.4806 22.6289ZM58.5583 29.386C58.2842 29.6998 58.4997 30.4504 59.0385 31.0668C59.5698 31.6812 60.2277 31.927 60.5 31.6132C60.7741 31.3031 60.5586 30.5487 60.0236 29.9343C59.4885 29.3198 58.8306 29.0722 58.5583 29.386ZM53.4102 29.9343C52.8713 30.5487 52.6615 31.3031 52.9299 31.6132C53.206 31.927 53.8601 31.6812 54.399 31.0668C54.934 30.4523 55.1476 29.6998 54.8792 29.386C54.6069 29.0722 53.9452 29.3198 53.4102 29.9343Z" fill="black"/>
</g>
</svg>
