<svg width="90" height="90" viewBox="0 0 90 90" fill="none" xmlns="http://www.w3.org/2000/svg">
<circle cx="45" cy="45" r="45" fill="#D9D9D9"/>
<circle cx="74" cy="76" r="14" fill="white"/>
<circle cx="74" cy="76" r="12" fill="#D9D9D9"/>
<path d="M74 73.75C72.7805 73.75 71.75 74.7805 71.75 76C71.75 77.2195 72.7805 78.25 74 78.25C75.2195 78.25 76.25 77.2195 76.25 76C76.25 74.7805 75.2195 73.75 74 73.75Z" fill="white"/>
<path d="M80 70.75H78.0605L76.0302 68.7197C75.8896 68.5791 75.6989 68.5 75.5 68.5H72.5C72.3011 68.5 72.1104 68.5791 71.9697 68.7197L69.9395 70.75H68C67.1727 70.75 66.5 71.4227 66.5 72.25V80.5C66.5 81.3273 67.1727 82 68 82H80C80.8272 82 81.5 81.3273 81.5 80.5V72.25C81.5 71.4227 80.8272 70.75 80 70.75ZM74 79.75C71.9675 79.75 70.25 78.0325 70.25 76C70.25 73.9675 71.9675 72.25 74 72.25C76.0325 72.25 77.75 73.9675 77.75 76C77.75 78.0325 76.0325 79.75 74 79.75Z" fill="white"/>
</svg>
