<svg width="17" height="11" viewBox="0 0 17 11" fill="none" xmlns="http://www.w3.org/2000/svg">
<path d="M1.54144 3.48245C4.30703 0.527064 9.80733 0.341787 12.2118 0.618572C14.2227 1.01398 14.8554 1.88952 15.2225 2.26798C15.8382 3.20002 15.5671 3.4768 15.4767 3.71969C15.1875 4.46984 13.4507 4.63478 12.6185 4.62348C11.0504 4.60992 8.13156 6.07895 6.86814 6.81516C4.71713 7.60598 2.42075 6.48566 1.54144 5.82665C0.560836 4.98161 1.13286 3.91175 1.54144 3.48245Z" stroke="white" stroke-width="1.05166" stroke-linecap="round"/>
<path d="M1.48033 6.13167C1.36547 6.19004 1.20467 6.41749 1.48033 6.86035C1.38053 7.13148 1.29957 7.7969 1.77406 8.28946C1.70251 8.64909 1.83393 9.44292 2.93204 9.74117C3.20129 10.1403 4.21315 10.8065 6.10659 10.2778C6.65451 10.468 8.02713 10.6269 9.13427 9.74117C9.86295 9.93511 11.5722 9.98067 12.58 8.61144C13.0902 8.70935 14.1808 8.65775 14.461 7.66811C14.7716 7.5702 15.3388 7.1586 15.1219 6.29548C15.3083 6.06012 15.593 5.35441 15.2405 4.41447" stroke="white" stroke-width="1.05166"/>
<path d="M9.67613 5.44253C9.43662 3.68919 7.2359 2.65209 5.28711 1.62968L8.63677 0.793678C9.41064 0.917949 10.8194 1.51897 11.6871 2.29622C12.5547 3.07348 12.9448 4.31845 13.0314 4.84377C13.054 5.92267 12.9377 8.26009 12.2915 8.9786C11.6453 9.69711 10.2015 9.69222 9.67613 9.65644C9.77592 8.74512 9.91563 7.19588 9.67613 5.44253Z" fill="white" stroke="white" stroke-width="1.05166"/>
<path d="M5.65361 1.34547C4.18496 2.37917 3.01907 4.74484 2.96484 6.32194" stroke="white" stroke-width="1.05166"/>
<path d="M9.25777 0.786263C7.196 1.81997 6.02108 4.8759 5.80078 6.86423" stroke="white" stroke-width="1.05166"/>
<path d="M12.5244 0.808838C10.4626 1.84254 8.79061 4.03988 8.57031 6.02821M14.75 1.76346C14.1625 2.13063 12.8633 2.98922 12.3945 4.63299" stroke="white" stroke-width="1.05166"/>
</svg>
