<svg width="14" height="14" viewBox="0 0 14 14" fill="none" xmlns="http://www.w3.org/2000/svg">
<path id="Vector" d="M12.6463 7.78231H7.78231V12.6463C7.78231 12.9043 7.67982 13.1517 7.49739 13.3341C7.31496 13.5166 7.06752 13.619 6.80952 13.619C6.55152 13.619 6.30409 13.5166 6.12166 13.3341C5.93923 13.1517 5.83673 12.9043 5.83673 12.6463V7.78231H0.972789C0.714789 7.78231 0.467357 7.67982 0.284924 7.49739C0.10249 7.31496 0 7.06752 0 6.80952C0 6.55152 0.10249 6.30409 0.284924 6.12166C0.467357 5.93923 0.714789 5.83673 0.972789 5.83673H5.83673V0.972789C5.83673 0.714789 5.93923 0.467356 6.12166 0.284923C6.30409 0.10249 6.55152 0 6.80952 0C7.06752 0 7.31496 0.10249 7.49739 0.284923C7.67982 0.467356 7.78231 0.714789 7.78231 0.972789V5.83673H12.6463C12.9043 5.83673 13.1517 5.93923 13.3341 6.12166C13.5166 6.30409 13.619 6.55152 13.619 6.80952C13.619 7.06752 13.5166 7.31496 13.3341 7.49739C13.1517 7.67982 12.9043 7.78231 12.6463 7.78231Z" fill="white" fill-opacity="0.5"/>
</svg>
