<svg width="18" height="22" viewBox="0 0 18 22" fill="none" xmlns="http://www.w3.org/2000/svg">
<path fill-rule="evenodd" clip-rule="evenodd" d="M0.753429 0.758353C-7.66345e-08 1.51671 0 2.73576 0 5.17647V16.8235C0 19.2642 -7.66345e-08 20.4833 0.753429 21.2416C1.50686 22 2.718 22 5.14286 22H12.8571C15.282 22 16.4931 22 17.2466 21.2416C18 20.4833 18 19.2642 18 16.8235V5.17647C18 2.73576 18 1.51671 17.2466 0.758353C16.4931 -7.71354e-08 15.282 0 12.8571 0H5.14286C2.718 0 1.50686 -7.71354e-08 0.753429 0.758353ZM5.14286 5.17647C4.80186 5.17647 4.47484 5.31282 4.23372 5.55551C3.9926 5.7982 3.85714 6.12737 3.85714 6.47059C3.85714 6.81381 3.9926 7.14297 4.23372 7.38567C4.47484 7.62836 4.80186 7.76471 5.14286 7.76471H12.8571C13.1981 7.76471 13.5252 7.62836 13.7663 7.38567C14.0074 7.14297 14.1429 6.81381 14.1429 6.47059C14.1429 6.12737 14.0074 5.7982 13.7663 5.55551C13.5252 5.31282 13.1981 5.17647 12.8571 5.17647H5.14286ZM5.14286 10.3529C4.80186 10.3529 4.47484 10.4893 4.23372 10.732C3.9926 10.9747 3.85714 11.3038 3.85714 11.6471C3.85714 11.9903 3.9926 12.3194 4.23372 12.5621C4.47484 12.8048 4.80186 12.9412 5.14286 12.9412H12.8571C13.1981 12.9412 13.5252 12.8048 13.7663 12.5621C14.0074 12.3194 14.1429 11.9903 14.1429 11.6471C14.1429 11.3038 14.0074 10.9747 13.7663 10.732C13.5252 10.4893 13.1981 10.3529 12.8571 10.3529H5.14286ZM5.14286 15.5294C4.80186 15.5294 4.47484 15.6658 4.23372 15.9084C3.9926 16.1511 3.85714 16.4803 3.85714 16.8235C3.85714 17.1668 3.9926 17.4959 4.23372 17.7386C4.47484 17.9813 4.80186 18.1176 5.14286 18.1176H10.2857C10.6267 18.1176 10.9537 17.9813 11.1949 17.7386C11.436 17.4959 11.5714 17.1668 11.5714 16.8235C11.5714 16.4803 11.436 16.1511 11.1949 15.9084C10.9537 15.6658 10.6267 15.5294 10.2857 15.5294H5.14286Z" fill="#A2A2A2"/>
</svg>
