<svg width="12" height="17" viewBox="0 0 12 17" fill="none" xmlns="http://www.w3.org/2000/svg">
<path d="M1.7832 5.18114L2.79981 15.6392C2.81545 15.7695 2.91034 16.0323 3.16475 16.0406C3.41916 16.049 5.65849 16.0441 6.74635 16.0406" stroke="white" stroke-width="0.933628" stroke-linecap="round"/>
<path d="M10.2852 5.18114L9.26855 15.6392C9.25291 15.7695 9.15802 16.0323 8.90361 16.0406C8.6492 16.049 6.40987 16.0441 5.32201 16.0406" stroke="white" stroke-width="0.933628" stroke-linecap="round"/>
<path d="M6.67604 7.97551H1.67119C1.58778 7.97551 1.43659 8.03598 1.49915 8.27789C1.56171 8.51979 1.87625 11.3503 2.0257 12.7353C2.04656 12.8309 2.16542 13.0242 2.47405 13.0325C2.78269 13.0408 5.27538 13.036 6.48315 13.0325" stroke="white" stroke-width="0.469205" stroke-linecap="round"/>
<path d="M5.4138 7.9755H10.4187C10.5021 7.9755 10.6533 8.03598 10.5907 8.27788C10.5281 8.51978 10.2136 11.3503 10.0641 12.7353C10.0433 12.8309 9.92442 13.0241 9.61579 13.0325C9.30716 13.0408 6.81446 13.036 5.6067 13.0325" stroke="white" stroke-width="0.469205" stroke-linecap="round"/>
<path fill-rule="evenodd" clip-rule="evenodd" d="M1.60938 8.25184L2.24019 12.8709L3.12647 13.0325H9.88824L10.2427 12.4747L10.6598 8.1945L9.99772 8.01724L1.92218 8.07459L1.60938 8.25184ZM4.96315 8.73183C4.67954 8.70875 4.35313 8.78286 4.091 8.95243C3.82231 9.12624 3.60202 9.41609 3.60202 9.81386V11.3049V11.3156L3.60284 11.3264C3.62704 11.6409 3.76992 11.9039 4.01342 12.0817C4.24948 12.2541 4.55719 12.3305 4.8935 12.3305C4.90552 12.3305 4.91736 12.3297 4.92897 12.3283C5.15605 12.3235 5.42279 12.2374 5.64211 12.0873C5.71079 12.0403 5.77814 11.9845 5.83949 11.9201C5.99756 12.1272 6.23741 12.3102 6.55796 12.3349L6.56868 12.3357H6.57944H8.07047C8.46824 12.3357 8.75809 12.1154 8.9319 11.8467C9.05116 11.6623 9.12321 11.4462 9.14742 11.2355C9.15153 11.2198 9.15433 11.2036 9.15569 11.1868C9.17878 10.9032 9.10466 10.5768 8.9351 10.3147C8.76129 10.046 8.47143 9.82572 8.07367 9.82572H6.58264H6.57188L6.56116 9.82654C6.3955 9.83929 6.24415 9.88495 6.112 9.96089V9.81706C6.112 9.41929 5.8917 9.12943 5.62301 8.95562C5.43865 8.83636 5.22248 8.76432 5.01177 8.7401C4.9961 8.73599 4.97985 8.73319 4.96315 8.73183ZM5.32573 11.625L5.31579 11.6317L5.45674 11.0826L5.48388 10.9769L5.43234 10.8807L4.94546 9.97182L5.1819 9.35574C5.22994 9.37497 5.27616 9.39841 5.31876 9.42597C5.46713 9.52195 5.55182 9.65178 5.55182 9.81706V11.2957C5.53913 11.4184 5.46144 11.5321 5.32573 11.625ZM4.37655 9.89076L4.59128 9.33126C4.5221 9.35346 4.45511 9.38406 4.39526 9.42277C4.24688 9.51876 4.16219 9.64858 4.16219 9.81386V11.2932C4.17638 11.4478 4.24147 11.5546 4.34381 11.6294C4.42612 11.6895 4.5451 11.7374 4.70489 11.7586L4.88702 11.049L4.39115 10.1234L4.33063 10.0104L4.37655 9.89076ZM6.26252 11.5494L6.25583 11.5395L6.80495 11.6804L6.91066 11.7076L7.00685 11.656L7.91571 11.1692L8.53178 11.4056C8.51255 11.4536 8.48911 11.4999 8.46155 11.5425C8.36557 11.6908 8.23575 11.7755 8.07047 11.7755H6.59178C6.46916 11.7628 6.3554 11.6851 6.26252 11.5494ZM7.99677 10.6003L8.55626 10.815C8.53406 10.7458 8.50347 10.6788 8.46475 10.619C8.36877 10.4706 8.23894 10.3859 8.07367 10.3859H6.59433C6.43976 10.4001 6.33291 10.4652 6.25816 10.5675C6.19805 10.6498 6.15013 10.7688 6.12897 10.9286L6.83852 11.1107L7.76415 10.6149L7.87712 10.5543L7.99677 10.6003Z" fill="white"/>
<path d="M2.24019 12.8709L2.20404 12.8758L2.20762 12.9021L2.23365 12.9068L2.24019 12.8709ZM1.60938 8.25184L1.59138 8.22009L1.56987 8.23228L1.57322 8.25678L1.60938 8.25184ZM3.12647 13.0325L3.11982 13.069H3.12647V13.0325ZM9.88824 13.0325V13.069H9.90828L9.91903 13.0521L9.88824 13.0325ZM10.2427 12.4747L10.2735 12.4943L10.2782 12.4869L10.2791 12.4782L10.2427 12.4747ZM10.6598 8.1945L10.6961 8.19804L10.6991 8.16724L10.6693 8.15924L10.6598 8.1945ZM9.99772 8.01724L10.0075 7.98068L9.99746 7.98075L9.99772 8.01724ZM1.92218 8.07459L1.92192 8.0381L1.91244 8.03816L1.90419 8.04284L1.92218 8.07459ZM4.091 8.95243L4.07118 8.92178L4.091 8.95243ZM4.96315 8.73183L4.96611 8.69546L4.96611 8.69546L4.96315 8.73183ZM3.60202 11.3156H3.56541L3.56563 11.3184L3.60202 11.3156ZM3.60284 11.3264L3.63923 11.3236L3.60284 11.3264ZM4.01342 12.0817L3.9919 12.1112L4.01342 12.0817ZM4.92897 12.3283L4.9282 12.2916L4.9244 12.2921L4.92897 12.3283ZM5.64211 12.0873L5.66272 12.1174L5.64211 12.0873ZM5.83949 11.9201L5.8685 11.898L5.84255 11.864L5.81306 11.8949L5.83949 11.9201ZM6.55796 12.3349L6.55516 12.3713H6.55516L6.55796 12.3349ZM6.56868 12.3357L6.56588 12.3722H6.56868V12.3357ZM8.9319 11.8467L8.96254 11.8665V11.8665L8.9319 11.8467ZM9.14742 11.2355L9.11176 11.2261L9.11117 11.2313L9.14742 11.2355ZM9.15569 11.1868L9.11932 11.1839V11.1839L9.15569 11.1868ZM8.9351 10.3147L8.96574 10.2949L8.9351 10.3147ZM6.57188 9.82572V9.78912L6.56908 9.78933L6.57188 9.82572ZM6.56116 9.82654L6.55836 9.79016H6.55836L6.56116 9.82654ZM6.112 9.96089H6.07551V10.024L6.13018 9.99253L6.112 9.96089ZM5.62301 8.95562L5.60319 8.98627V8.98627L5.62301 8.95562ZM5.01177 8.7401L5.00243 8.77576L5.00761 8.77636L5.01177 8.7401ZM5.31579 11.6317L5.28045 11.6226L5.25659 11.7155L5.33618 11.662L5.31579 11.6317ZM5.32573 11.625L5.34611 11.6553L5.34634 11.6551L5.32573 11.625ZM5.45674 11.0826L5.49209 11.0916L5.45674 11.0826ZM5.48388 10.9769L5.51922 10.9859L5.52276 10.9722L5.51605 10.9596L5.48388 10.9769ZM5.43234 10.8807L5.46451 10.8634L5.43234 10.8807ZM4.94546 9.97182L4.91139 9.95874L4.9054 9.97433L4.91329 9.98905L4.94546 9.97182ZM5.1819 9.35574L5.19546 9.32186L5.16109 9.30811L5.14783 9.34267L5.1819 9.35574ZM5.31876 9.42597L5.29893 9.45661L5.31876 9.42597ZM5.55182 11.2957L5.58832 11.2995V11.2957H5.55182ZM4.59128 9.33126L4.62535 9.34434L4.65263 9.27325L4.58013 9.29651L4.59128 9.33126ZM4.37655 9.89076L4.41062 9.90383L4.37655 9.89076ZM4.39526 9.42277L4.41508 9.45342L4.39526 9.42277ZM4.16219 11.2932H4.12555L4.12585 11.2965L4.16219 11.2932ZM4.34381 11.6294L4.32228 11.6588V11.6588L4.34381 11.6294ZM4.70489 11.7586L4.70011 11.7947L4.73219 11.799L4.74024 11.7676L4.70489 11.7586ZM4.88702 11.049L4.92237 11.0581L4.92591 11.0443L4.91919 11.0318L4.88702 11.049ZM4.39115 10.1234L4.42332 10.1061L4.39115 10.1234ZM4.33063 10.0104L4.29656 9.99733L4.29058 10.0129L4.29846 10.0276L4.33063 10.0104ZM6.25583 11.5395L6.26491 11.5041L6.17197 11.4803L6.22556 11.5599L6.25583 11.5395ZM6.26252 11.5494L6.23225 11.5698L6.23241 11.57L6.26252 11.5494ZM6.80495 11.6804L6.81402 11.6451L6.80495 11.6804ZM6.91066 11.7076L6.90158 11.7429L6.91535 11.7465L6.92789 11.7397L6.91066 11.7076ZM7.00685 11.656L6.98962 11.6239L7.00685 11.656ZM7.91571 11.1692L7.92878 11.1351L7.91319 11.1291L7.89847 11.137L7.91571 11.1692ZM8.53178 11.4056L8.56566 11.4192L8.57942 11.3848L8.54486 11.3715L8.53178 11.4056ZM8.46155 11.5425L8.4922 11.5623V11.5623L8.46155 11.5425ZM6.59178 11.7755L6.588 11.812H6.59178V11.7755ZM8.55626 10.815L8.54319 10.8491L8.61427 10.8763L8.59101 10.8038L8.55626 10.815ZM7.99677 10.6003L8.00984 10.5662L7.99677 10.6003ZM8.46475 10.619L8.49539 10.5991V10.5991L8.46475 10.619ZM6.59433 10.3859V10.3492L6.591 10.3496L6.59433 10.3859ZM6.25816 10.5675L6.28763 10.589V10.589L6.25816 10.5675ZM6.12897 10.9286L6.09279 10.9238L6.08855 10.9559L6.1199 10.9639L6.12897 10.9286ZM6.83852 11.1107L6.82945 11.1461L6.84322 11.1496L6.85575 11.1429L6.83852 11.1107ZM7.76415 10.6149L7.78138 10.647H7.78138L7.76415 10.6149ZM7.87712 10.5543L7.89019 10.5203L7.8746 10.5143L7.85988 10.5222L7.87712 10.5543ZM2.27635 12.866L1.64553 8.24691L1.57322 8.25678L2.20404 12.8758L2.27635 12.866ZM3.13302 12.9966L2.24674 12.835L2.23365 12.9068L3.11992 13.0684L3.13302 12.9966ZM9.88824 12.996H3.12647V13.069H9.88824V12.996ZM10.2119 12.4551L9.85744 13.0129L9.91903 13.0521L10.2735 12.4943L10.2119 12.4551ZM10.6235 8.19096L10.2064 12.4711L10.2791 12.4782L10.6961 8.19804L10.6235 8.19096ZM9.98828 8.05249L10.6504 8.22975L10.6693 8.15924L10.0072 7.98199L9.98828 8.05249ZM1.92244 8.11108L9.99798 8.05374L9.99746 7.98075L1.92192 8.0381L1.92244 8.11108ZM1.62737 8.28359L1.94017 8.10634L1.90419 8.04284L1.59138 8.22009L1.62737 8.28359ZM4.11082 8.98307C4.36597 8.81802 4.68432 8.74575 4.96018 8.76821L4.96611 8.69546C4.67476 8.67174 4.3403 8.7477 4.07118 8.92178L4.11082 8.98307ZM3.63851 9.81386C3.63851 9.4313 3.8499 9.15185 4.11082 8.98307L4.07118 8.92178C3.79472 9.10062 3.56552 9.40088 3.56552 9.81386H3.63851ZM3.63851 11.3049V9.81386H3.56552V11.3049H3.63851ZM3.63851 11.3156V11.3049H3.56552V11.3156H3.63851ZM3.63923 11.3236L3.6384 11.3128L3.56563 11.3184L3.56645 11.3292L3.63923 11.3236ZM4.03495 12.0523C3.80051 11.881 3.66265 11.6281 3.63923 11.3236L3.56645 11.3292C3.59142 11.6538 3.73933 11.9267 3.9919 12.1112L4.03495 12.0523ZM4.8935 12.294C4.56227 12.294 4.26291 12.2188 4.03495 12.0523L3.9919 12.1112C4.23605 12.2895 4.5521 12.367 4.8935 12.367V12.294ZM4.9244 12.2921C4.91429 12.2933 4.90398 12.294 4.8935 12.294V12.367C4.90705 12.367 4.92042 12.3661 4.93355 12.3645L4.9244 12.2921ZM5.6215 12.0572C5.40754 12.2036 5.14761 12.2872 4.9282 12.2918L4.92974 12.3648C5.16448 12.3598 5.43804 12.2712 5.66272 12.1174L5.6215 12.0572ZM5.81306 11.8949C5.75364 11.9573 5.68828 12.0115 5.6215 12.0572L5.66272 12.1174C5.73329 12.0691 5.80264 12.0117 5.86592 11.9453L5.81306 11.8949ZM6.56076 12.2985C6.25355 12.2749 6.02233 12.0995 5.8685 11.898L5.81048 11.9422C5.9728 12.1549 6.22127 12.3456 6.55516 12.3713L6.56076 12.2985ZM6.57148 12.2993L6.56076 12.2985L6.55516 12.3713L6.56588 12.3721L6.57148 12.2993ZM6.57944 12.2992H6.56868V12.3722H6.57944V12.2992ZM8.07047 12.2992H6.57944V12.3722H8.07047V12.2992ZM8.90126 11.8269C8.73247 12.0878 8.45302 12.2992 8.07047 12.2992V12.3722C8.48345 12.3722 8.78371 12.143 8.96254 11.8665L8.90126 11.8269ZM9.11117 11.2313C9.08754 11.4369 9.01721 11.6476 8.90126 11.8269L8.96254 11.8665C9.08512 11.6771 9.15888 11.4554 9.18368 11.2396L9.11117 11.2313ZM9.11932 11.1839C9.11813 11.1985 9.11569 11.2126 9.11212 11.2262L9.18272 11.2447C9.18737 11.227 9.19053 11.2087 9.19207 11.1898L9.11932 11.1839ZM8.90446 10.3345C9.0695 10.5897 9.14177 10.908 9.11932 11.1839L9.19207 11.1898C9.21578 10.8985 9.13982 10.564 8.96574 10.2949L8.90446 10.3345ZM8.07367 9.86221C8.45622 9.86221 8.73567 10.0736 8.90446 10.3345L8.96574 10.2949C8.7869 10.0184 8.48665 9.78923 8.07367 9.78923V9.86221ZM6.58264 9.86221H8.07367V9.78923H6.58264V9.86221ZM6.57188 9.86221H6.58264V9.78923H6.57188V9.86221ZM6.56395 9.86293L6.57468 9.86211L6.56908 9.78933L6.55836 9.79016L6.56395 9.86293ZM6.13018 9.99253C6.25728 9.91949 6.40331 9.87529 6.56395 9.86293L6.55836 9.79016C6.38768 9.80329 6.23101 9.85041 6.09382 9.92925L6.13018 9.99253ZM6.07551 9.81706V9.96089H6.14849V9.81706H6.07551ZM5.60319 8.98627C5.86412 9.15505 6.07551 9.4345 6.07551 9.81706H6.14849C6.14849 9.40407 5.91929 9.10382 5.64283 8.92498L5.60319 8.98627ZM5.00761 8.77636C5.21323 8.79999 5.42394 8.87031 5.60319 8.98627L5.64283 8.92498C5.45335 8.80241 5.23173 8.72865 5.01594 8.70385L5.00761 8.77636ZM4.96018 8.76821C4.97476 8.76939 4.9889 8.77183 5.00252 8.7754L5.02103 8.7048C5.0033 8.70015 4.98495 8.69699 4.96611 8.69546L4.96018 8.76821ZM5.33618 11.662L5.34611 11.6553L5.30534 11.5947L5.29541 11.6014L5.33618 11.662ZM5.4214 11.0735L5.28045 11.6226L5.35114 11.6408L5.49209 11.0916L5.4214 11.0735ZM5.44853 10.9678L5.4214 11.0735L5.49209 11.0916L5.51922 10.9859L5.44853 10.9678ZM5.40017 10.8979L5.45171 10.9941L5.51605 10.9596L5.46451 10.8634L5.40017 10.8979ZM4.91329 9.98905L5.40017 10.8979L5.46451 10.8634L4.97763 9.95459L4.91329 9.98905ZM5.14783 9.34267L4.91139 9.95874L4.97953 9.98489L5.21597 9.36882L5.14783 9.34267ZM5.33858 9.39533C5.29382 9.36638 5.24548 9.34188 5.19546 9.32186L5.16834 9.38962C5.2144 9.40806 5.25849 9.43045 5.29893 9.45661L5.33858 9.39533ZM5.58832 9.81706C5.58832 9.63678 5.49495 9.49648 5.33858 9.39533L5.29893 9.45661C5.43932 9.54742 5.51533 9.66677 5.51533 9.81706H5.58832ZM5.58832 11.2957V9.81706H5.51533V11.2957H5.58832ZM5.34634 11.6551C5.48786 11.5583 5.57399 11.436 5.58812 11.2995L5.51552 11.292C5.50426 11.4008 5.43501 11.506 5.30512 11.5949L5.34634 11.6551ZM4.55721 9.31819L4.34248 9.87768L4.41062 9.90383L4.62535 9.34434L4.55721 9.31819ZM4.41508 9.45342C4.47193 9.41664 4.53594 9.38735 4.60243 9.36601L4.58013 9.29651C4.50826 9.31957 4.4383 9.35147 4.37544 9.39213L4.41508 9.45342ZM4.19869 9.81386C4.19869 9.66357 4.2747 9.54423 4.41508 9.45342L4.37544 9.39213C4.21907 9.49328 4.1257 9.63359 4.1257 9.81386H4.19869ZM4.19869 11.2932V9.81386H4.1257V11.2932H4.19869ZM4.36533 11.5999C4.27178 11.5316 4.2118 11.4344 4.19853 11.2899L4.12585 11.2965C4.14096 11.4611 4.21115 11.5777 4.32228 11.6588L4.36533 11.5999ZM4.70968 11.7224C4.55448 11.7018 4.44165 11.6556 4.36533 11.5999L4.32228 11.6588C4.41059 11.7233 4.53571 11.773 4.70011 11.7947L4.70968 11.7224ZM4.85168 11.0399L4.66955 11.7495L4.74024 11.7676L4.92237 11.0581L4.85168 11.0399ZM4.35898 10.1406L4.85486 11.0662L4.91919 11.0318L4.42332 10.1061L4.35898 10.1406ZM4.29846 10.0276L4.35898 10.1406L4.42332 10.1061L4.3628 9.99317L4.29846 10.0276ZM4.34248 9.87768L4.29656 9.99733L4.3647 10.0235L4.41062 9.90383L4.34248 9.87768ZM6.22556 11.5599L6.23225 11.5698L6.29279 11.529L6.2861 11.5191L6.22556 11.5599ZM6.81402 11.6451L6.26491 11.5041L6.24676 11.5748L6.79588 11.7158L6.81402 11.6451ZM6.91973 11.6722L6.81402 11.6451L6.79588 11.7158L6.90158 11.7429L6.91973 11.6722ZM6.98962 11.6239L6.89342 11.6754L6.92789 11.7397L7.02409 11.6882L6.98962 11.6239ZM7.89847 11.137L6.98962 11.6239L7.02409 11.6882L7.93294 11.2013L7.89847 11.137ZM8.54486 11.3715L7.92878 11.1351L7.90263 11.2032L8.51871 11.4397L8.54486 11.3715ZM8.4922 11.5623C8.52115 11.5175 8.54564 11.4692 8.56566 11.4192L8.4979 11.392C8.47946 11.4381 8.45707 11.4822 8.43091 11.5226L8.4922 11.5623ZM8.07047 11.812C8.25074 11.812 8.39104 11.7187 8.4922 11.5623L8.43091 11.5226C8.3401 11.663 8.22075 11.739 8.07047 11.739V11.812ZM6.59178 11.812H8.07047V11.739H6.59178V11.812ZM6.23241 11.57C6.32926 11.7116 6.45156 11.7977 6.58802 11.8118L6.59553 11.7392C6.48677 11.728 6.38154 11.6587 6.29264 11.5288L6.23241 11.57ZM8.56934 10.7809L8.00984 10.5662L7.98369 10.6343L8.54319 10.8491L8.56934 10.7809ZM8.43411 10.6388C8.47088 10.6956 8.50018 10.7596 8.52151 10.8261L8.59101 10.8038C8.56795 10.732 8.53605 10.662 8.49539 10.5991L8.43411 10.6388ZM8.07367 10.4224C8.22395 10.4224 8.3433 10.4984 8.43411 10.6388L8.49539 10.5991C8.39424 10.4428 8.25394 10.3494 8.07367 10.3494V10.4224ZM6.59433 10.4224H8.07367V10.3494H6.59433V10.4224ZM6.28763 10.589C6.35596 10.4955 6.45311 10.4355 6.59767 10.4222L6.591 10.3496C6.4264 10.3647 6.30985 10.4349 6.22869 10.546L6.28763 10.589ZM6.16515 10.9334C6.1857 10.7782 6.23189 10.6654 6.28763 10.589L6.22869 10.546C6.1642 10.6343 6.11456 10.7594 6.09279 10.9238L6.16515 10.9334ZM6.84759 11.0754L6.13805 10.8933L6.1199 10.9639L6.82945 11.1461L6.84759 11.0754ZM7.74692 10.5827L6.82129 11.0786L6.85575 11.1429L7.78138 10.647L7.74692 10.5827ZM7.85988 10.5222L7.74692 10.5827L7.78138 10.647L7.89435 10.5865L7.85988 10.5222ZM8.00984 10.5662L7.89019 10.5203L7.86404 10.5884L7.98369 10.6343L8.00984 10.5662Z" fill="white"/>
<path d="M1.61914 3.43985V2.43156C1.62783 2.31489 1.71715 2.07527 2.00493 2.05019C2.29271 2.02512 4.68635 2.03974 5.8472 2.05019C5.92714 2.03452 6.1037 1.98646 6.17043 1.91958C6.23716 1.85271 6.81689 1.40064 7.09841 1.18296C7.19051 1.12027 7.42998 0.995931 7.65103 1.00011C7.87208 1.00429 9.40099 1.00185 10.1378 1.00011C10.2803 1.02101 10.5674 1.12758 10.5757 1.38671V3.43985" stroke="white" stroke-width="0.469205"/>
<path d="M1.44314 3.54581C1.29716 3.53198 1.00417 3.59771 1 3.97134V4.68748C1.00521 4.79991 1.10114 5.02686 1.44314 5.03517H6.5679M10.6083 3.54581C10.7543 3.53198 11.0472 3.59771 11.0514 3.97134V4.68748C11.0462 4.79991 10.9503 5.02686 10.6083 5.03517H5.48351" stroke="white" stroke-width="0.469205" stroke-linecap="round"/>
<path fill-rule="evenodd" clip-rule="evenodd" d="M1 3.67968V4.88397L1.61236 5.00388H10.5338L10.9456 4.88397L11.0723 4.45126V3.67968H10.5338V3.00194V1.28674L9.92145 1H7.35587L5.93583 2.11045H2.07691L1.61236 2.44411V3.48679L1 3.67968ZM2.26941 3.20336C2.12503 3.20336 2.00799 3.3204 2.00799 3.46478C2.00799 3.60916 2.12503 3.7262 2.26941 3.7262H9.77577C9.92015 3.7262 10.0372 3.60916 10.0372 3.46478C10.0372 3.3204 9.92015 3.20336 9.77577 3.20336H2.26941Z" fill="white"/>
<path d="M1 4.88397H0.97287L0.998998 4.88909L1 4.88397ZM1 3.67968L0.994787 3.66313V3.67968H1ZM1.61236 5.00388L1.61134 5.0091H1.61236V5.00388ZM10.5338 5.00388V5.00931L10.5353 5.00889L10.5338 5.00388ZM10.9456 4.88397L10.9483 4.89328L10.9506 4.88544L10.9456 4.88397ZM11.0723 4.45126L11.0775 4.45279V4.45126H11.0723ZM10.5338 1.28674H10.5461L10.536 1.28201L10.5338 1.28674ZM9.92145 1L9.92389 0.994787H9.92145V1ZM7.35587 1V0.993382L7.35266 0.995893L7.35587 1ZM5.93583 2.11045V2.11707L5.93904 2.11456L5.93583 2.11045ZM2.07691 2.11045V2.10403L2.07387 2.10622L2.07691 2.11045ZM1.61236 2.44411L1.60715 2.43685V2.44411H1.61236ZM1.61236 3.48679L1.61757 3.50334V3.48679H1.61236ZM1.00521 4.88397V3.67968H0.994787V4.88397H1.00521ZM1.61336 4.99877L1.001 4.87886L0.998998 4.88909L1.61136 5.009L1.61336 4.99877ZM10.5338 4.99867H1.61236V5.0091H10.5338V4.99867ZM10.9441 4.87897L10.5324 4.99888L10.5353 5.00889L10.947 4.88898L10.9441 4.87897ZM11.0673 4.4498L10.9406 4.88251L10.9506 4.88544L11.0773 4.45273L11.0673 4.4498ZM11.0671 3.67968V4.45126H11.0775V3.67968H11.0671ZM10.5338 3.6849H11.0723V3.67447H10.5338V3.6849ZM10.5286 3.00194V3.67968H10.539V3.00194H10.5286ZM10.5286 1.28674V3.00194H10.539V1.28674H10.5286ZM9.91924 1.00472L10.5316 1.29146L10.536 1.28201L9.92366 0.995279L9.91924 1.00472ZM7.35587 1.00521H9.92145V0.994787H7.35587V1.00521ZM5.93904 2.11456L7.35909 1.00411L7.35266 0.995893L5.93262 2.10635L5.93904 2.11456ZM2.07691 2.11567H5.93583V2.10524H2.07691V2.11567ZM1.6154 2.44834L2.07995 2.11469L2.07387 2.10622L1.60932 2.43987L1.6154 2.44834ZM1.61757 3.48679V2.44411H1.60715V3.48679H1.61757ZM1.00157 3.68465L1.61393 3.49176L1.61079 3.48181L0.998434 3.67471L1.00157 3.68465ZM2.01321 3.46478C2.01321 3.32328 2.12791 3.20858 2.26941 3.20858V3.19815C2.12215 3.19815 2.00278 3.31752 2.00278 3.46478H2.01321ZM2.26941 3.72098C2.12791 3.72098 2.01321 3.60628 2.01321 3.46478H2.00278C2.00278 3.61204 2.12215 3.73141 2.26941 3.73141V3.72098ZM9.77577 3.72098H2.26941V3.73141H9.77577V3.72098ZM10.032 3.46478C10.032 3.60628 9.91727 3.72098 9.77577 3.72098V3.73141C9.92303 3.73141 10.0424 3.61204 10.0424 3.46478H10.032ZM9.77577 3.20858C9.91727 3.20858 10.032 3.32328 10.032 3.46478H10.0424C10.0424 3.31752 9.92303 3.19815 9.77577 3.19815V3.20858ZM2.26941 3.20858H9.77577V3.19815H2.26941V3.20858Z" fill="white"/>
</svg>
