<svg width="11" height="11" viewBox="0 0 11 11" fill="none" xmlns="http://www.w3.org/2000/svg">
<g clip-path="url(#clip0_446_4769)">
<path d="M5.5 0C6.95869 0 8.35764 0.579463 9.38909 1.61091C10.4205 2.64236 11 4.04131 11 5.5C11 6.95869 10.4205 8.35764 9.38909 9.38909C8.35764 10.4205 6.95869 11 5.5 11C4.04131 11 2.64236 10.4205 1.61091 9.38909C0.579463 8.35764 0 6.95869 0 5.5C0 4.04131 0.579463 2.64236 1.61091 1.61091C2.64236 0.579463 4.04131 0 5.5 0ZM4.98438 2.57812V5.5C4.98438 5.67188 5.07031 5.83301 5.21426 5.92969L7.27676 7.30469C7.51309 7.46367 7.8332 7.39922 7.99219 7.16074C8.15117 6.92227 8.08672 6.6043 7.84824 6.44531L6.01562 5.225V2.57812C6.01562 2.29238 5.78574 2.0625 5.5 2.0625C5.21426 2.0625 4.98438 2.29238 4.98438 2.57812Z" fill="#7C7C7C"/>
</g>
<defs>
<clipPath id="clip0_446_4769">
<rect width="11" height="11" fill="white"/>
</clipPath>
</defs>
</svg>
