<svg width="17" height="16" viewBox="0 0 17 16" fill="none" xmlns="http://www.w3.org/2000/svg">
<path d="M8.06904 0.999992C5.93203 1.01797 1.5095 1.93856 0.612256 5.63121C0.574819 5.78532 0.589518 5.93173 0.650134 6.00879C0.767236 6.15766 1.01389 6.1475 1.2185 6.1475L8.2888 6.12438" stroke="white" stroke-width="0.119205"/>
<path d="M8.06768 0.999992C10.2047 1.01797 14.6272 1.93856 15.5245 5.63121C15.5619 5.78532 15.5472 5.93173 15.4866 6.00879C15.3695 6.15766 15.1228 6.1475 14.9182 6.1475L7.84792 6.12438" stroke="white" stroke-width="0.119205"/>
<path d="M0.666016 7.36503H15.3674" stroke="white" stroke-width="0.825472" stroke-linecap="round"/>
<path fill-rule="evenodd" clip-rule="evenodd" d="M7.29761 8.39761H1.04636C0.46847 8.39761 0 8.86608 0 9.44396V10.1254C0 10.7032 0.468469 11.1717 1.04636 11.1717H14.9736C15.5515 11.1717 16.02 10.7032 16.02 10.1254V9.44396C16.02 8.86608 15.5515 8.39761 14.9736 8.39761H14.178C13.8557 8.43448 13.57 8.5591 13.0548 9.01802C11.7786 10.1546 10.4688 9.53666 9.87225 8.87415C9.44895 8.60087 8.94888 8.71474 8.75175 8.80583C8.22241 9.06697 7.99324 8.8661 7.76167 8.66312C7.62744 8.54546 7.4924 8.4271 7.29761 8.39761ZM8.34552 8.39761H9.61777C9.17402 8.39832 8.74314 8.39842 8.34552 8.39761Z" fill="white"/>
<path d="M0.694435 12.1889H8.76022L8.68441 14.9013H3.31733C0.0500774 14.859 0.37391 12.6538 0.398789 12.422C0.421529 12.2101 0.568091 12.1912 0.694435 12.1889Z" fill="white" stroke="white" stroke-width="0.397351" stroke-linecap="round"/>
<path d="M15.3251 12.1889H7.25931L7.33512 14.9013H12.7022C15.9695 14.859 15.6456 12.6538 15.6207 12.422C15.598 12.2101 15.4514 12.1912 15.3251 12.1889Z" fill="white" stroke="white" stroke-width="0.397351" stroke-linecap="round"/>
<path fill-rule="evenodd" clip-rule="evenodd" d="M8.09145 1.03079C6.57811 1.03079 4.19634 1.55787 2.68073 2.61819C2.02144 3.13962 0.684676 4.50304 0.611927 5.78529C0.558881 5.91886 0.605865 6.17675 1.21817 6.13976H9.10691H15.3436C15.4497 6.12949 15.6301 6.00568 15.5028 5.59265L15.4952 5.56802C15.3329 5.04085 14.9891 3.92458 14.1387 3.21154C13.2748 2.48719 11.6531 1.50084 9.75862 1.1772C9.24079 1.10528 8.18239 0.975305 8.09145 1.03079ZM8.0971 3.87213C8.3231 3.87213 8.50631 3.78598 8.50631 3.67972C8.50631 3.57346 8.3231 3.48731 8.0971 3.48731C7.87109 3.48731 7.68788 3.57346 7.68788 3.67972C7.68788 3.78598 7.87109 3.87213 8.0971 3.87213ZM7.03192 2.25329C7.02246 2.35912 6.83233 2.42804 6.60726 2.40724C6.38219 2.38644 6.2074 2.28378 6.21686 2.17796C6.22632 2.07213 6.41644 2.0032 6.64152 2.024C6.86659 2.04481 7.04138 2.14746 7.03192 2.25329ZM5.90911 4.83852C6.11629 4.74684 6.25044 4.59351 6.20873 4.49605C6.16703 4.3986 5.96526 4.39392 5.75807 4.48561C5.55088 4.57729 5.41673 4.73062 5.45844 4.82807C5.50015 4.92553 5.70192 4.93021 5.90911 4.83852ZM9.234 5.00622C9.18237 5.09864 8.98126 5.08156 8.78482 4.96807C8.58838 4.85458 8.47099 4.68766 8.52263 4.59524C8.57426 4.50282 8.77537 4.5199 8.97181 4.63339C9.16825 4.74688 9.28564 4.9138 9.234 5.00622ZM10.1371 2.7786C10.351 2.70458 10.4971 2.56301 10.4635 2.4624C10.4298 2.36179 10.2291 2.34023 10.0152 2.41426C9.80122 2.48828 9.6551 2.62985 9.68876 2.73046C9.72243 2.83107 9.92315 2.85262 10.1371 2.7786ZM12.0258 4.52226C12.0156 4.62801 11.825 4.69555 11.6001 4.6731C11.3752 4.65065 11.2011 4.54671 11.2113 4.44096C11.2215 4.3352 11.4121 4.26767 11.6371 4.29012C11.862 4.31257 12.036 4.4165 12.0258 4.52226ZM12.2774 3.70162C12.4735 3.81562 12.6746 3.83323 12.7265 3.74094C12.7784 3.64866 12.6614 3.48143 12.4652 3.36743C12.2691 3.25343 12.068 3.23582 12.0161 3.32811C11.9643 3.42039 12.0812 3.58762 12.2774 3.70162ZM4.67213 3.30729C4.70666 3.40759 4.56175 3.55045 4.34847 3.62637C4.13519 3.70229 3.9343 3.68252 3.89977 3.58221C3.86524 3.4819 4.01014 3.33904 4.22343 3.26312C4.43671 3.1872 4.6376 3.20698 4.67213 3.30729ZM2.66191 4.75526C2.83496 4.90289 3.02972 4.95655 3.09692 4.8751C3.16412 4.79365 3.07832 4.60794 2.90527 4.46031C2.73222 4.31268 2.53747 4.25902 2.47027 4.34047C2.40306 4.42192 2.48887 4.60762 2.66191 4.75526Z" fill="white"/>
</svg>
