<svg width="17" height="15" viewBox="0 0 17 15" fill="none" xmlns="http://www.w3.org/2000/svg">
<path d="M1.66715 5.63407L10.6577 6.19368L8.66176 14.6495H5.17048C4.80744 14.5963 4.70458 14.3208 4.69853 14.1897V12.9311C1.53767 11.4645 0.920907 7.94743 1.00763 6.37225C1.02215 5.83011 1.45336 5.65424 1.66715 5.63407Z" fill="white" stroke="white" stroke-width="0.363039" stroke-linecap="round"/>
<path d="M2.25577 6.04551C2.14685 5.42229 2.34652 4.44209 3.71399 4.01249C3.5748 2.89918 4.83941 1.35021 6.62435 2.0763C7.36858 1.01137 9.20797 0.400267 10.3455 1.87662" stroke="white" stroke-width="1.24643" stroke-linecap="round"/>
<path d="M14.8595 6.04552C14.9684 5.42231 14.7687 4.4421 13.4012 4.0125C13.5404 2.89919 12.2758 1.35022 10.4909 2.07631C9.82532 1.04769 8.05248 0.491027 6.76974 1.87663" stroke="white" stroke-width="1.24643" stroke-linecap="round"/>
<path fill-rule="evenodd" clip-rule="evenodd" d="M3.25 5.63406H15.3331C15.5469 5.65423 15.9781 5.8301 15.9927 6.37224C16.0794 7.94742 15.4626 11.4645 12.3018 12.9311V14.1897C12.2957 14.3208 12.1929 14.5963 11.8298 14.6495H7.40679L3.25 5.63406ZM15.1015 7.4599C15.1015 7.15172 14.8517 6.9019 14.5435 6.9019C14.2354 6.9019 13.9855 7.15172 13.9855 7.4599C13.9855 8.17233 13.7619 9.0362 13.31 9.7655C12.8613 10.4897 12.2132 11.0437 11.3756 11.2288C11.0746 11.2953 10.8846 11.5932 10.9511 11.8941C11.0177 12.195 11.3155 12.385 11.6164 12.3185C12.8177 12.053 13.6933 11.2656 14.2586 10.3533C14.8208 9.44621 15.1015 8.37854 15.1015 7.4599Z" fill="white"/>
<path d="M15.3331 5.63406L15.3502 5.45334L15.3417 5.45254H15.3331V5.63406ZM3.25 5.63406V5.45254H2.96642L3.08516 5.71006L3.25 5.63406ZM15.9927 6.37224L15.8111 6.3771L15.8114 6.38221L15.9927 6.37224ZM12.3018 12.9311L12.2254 12.7665L12.1202 12.8153V12.9311H12.3018ZM12.3018 14.1897L12.4833 14.198V14.1897H12.3018ZM11.8298 14.6495V14.831H11.8431L11.8562 14.8291L11.8298 14.6495ZM7.40679 14.6495L7.24195 14.7255L7.2906 14.831H7.40679V14.6495ZM13.31 9.7655L13.1557 9.66989V9.66989L13.31 9.7655ZM11.3756 11.2288L11.4147 11.4061L11.3756 11.2288ZM11.6164 12.3185L11.6556 12.4957V12.4957L11.6164 12.3185ZM14.2586 10.3533L14.4129 10.449L14.2586 10.3533ZM15.3331 5.45254H3.25V5.81558H15.3331V5.45254ZM16.1741 6.36737C16.1654 6.04236 16.0289 5.81465 15.8542 5.66828C15.6857 5.52705 15.4882 5.46636 15.3502 5.45334L15.3161 5.81477C15.3919 5.82193 15.5169 5.85925 15.621 5.94653C15.7191 6.02867 15.8054 6.15997 15.8112 6.3771L16.1741 6.36737ZM12.3782 13.0958C14.0083 12.3394 14.9803 11.0542 15.532 9.76373C16.0824 8.47624 16.2187 7.17504 16.1739 6.36226L15.8114 6.38221C15.8534 7.14462 15.7246 8.38952 15.1981 9.62102C14.6729 10.8496 13.756 12.0562 12.2254 12.7665L12.3782 13.0958ZM12.4833 14.1897V12.9311H12.1202V14.1897H12.4833ZM11.8562 14.8291C12.3266 14.7601 12.4741 14.3924 12.4831 14.198L12.1204 14.1813C12.1173 14.2492 12.0591 14.4324 11.8035 14.4699L11.8562 14.8291ZM7.40679 14.831H11.8298V14.468H7.40679V14.831ZM3.08516 5.71006L7.24195 14.7255L7.57163 14.5735L3.41484 5.55805L3.08516 5.71006ZM14.5435 7.08342C14.7515 7.08342 14.92 7.25197 14.92 7.4599H15.283C15.283 7.05147 14.952 6.72038 14.5435 6.72038V7.08342ZM14.167 7.4599C14.167 7.25197 14.3356 7.08342 14.5435 7.08342V6.72038C14.1351 6.72038 13.804 7.05147 13.804 7.4599H14.167ZM13.4643 9.86112C13.9342 9.10289 14.167 8.20587 14.167 7.4599H13.804C13.804 8.13879 13.5897 8.96951 13.1557 9.66989L13.4643 9.86112ZM11.4147 11.4061C12.3114 11.2079 12.9965 10.616 13.4643 9.86112L13.1557 9.66989C12.726 10.3633 12.1149 10.8795 11.3364 11.0516L11.4147 11.4061ZM11.1284 11.8549C11.0835 11.6519 11.2117 11.4509 11.4147 11.4061L11.3364 11.0516C10.9376 11.1397 10.6857 11.5345 10.7739 11.9333L11.1284 11.8549ZM11.5773 12.1413C11.3742 12.1861 11.1733 12.0579 11.1284 11.8549L10.7739 11.9333C10.8621 12.3321 11.2568 12.5839 11.6556 12.4957L11.5773 12.1413ZM14.1043 10.2577C13.5579 11.1395 12.7193 11.8888 11.5773 12.1413L11.6556 12.4957C12.9161 12.2171 13.8287 11.3917 14.4129 10.449L14.1043 10.2577ZM14.92 7.4599C14.92 8.345 14.6485 9.37952 14.1043 10.2577L14.4129 10.449C14.993 9.5129 15.283 8.41207 15.283 7.4599H14.92Z" fill="white"/>
</svg>
