<svg width="14" height="14" viewBox="0 0 14 14" fill="none" xmlns="http://www.w3.org/2000/svg">
<path d="M7 0.583008C8.39239 0.583008 9.72774 1.13613 10.7123 2.1207C11.6969 3.10526 12.25 4.44062 12.25 5.83301C12.25 8.00651 10.5933 10.2838 7.35 12.7163C7.24903 12.7921 7.12622 12.833 7 12.833C6.87378 12.833 6.75097 12.7921 6.65 12.7163C3.40667 10.2838 1.75 8.00651 1.75 5.83301C1.75 4.44062 2.30312 3.10526 3.28769 2.1207C4.27226 1.13613 5.60761 0.583008 7 0.583008ZM7 4.08301C6.53587 4.08301 6.09075 4.26738 5.76256 4.59557C5.43437 4.92376 5.25 5.36888 5.25 5.83301C5.25 6.29714 5.43437 6.74226 5.76256 7.07044C6.09075 7.39863 6.53587 7.58301 7 7.58301C7.46413 7.58301 7.90925 7.39863 8.23744 7.07044C8.56563 6.74226 8.75 6.29714 8.75 5.83301C8.75 5.36888 8.56563 4.92376 8.23744 4.59557C7.90925 4.26738 7.46413 4.08301 7 4.08301Z" fill="#7C7C7C"/>
</svg>
