<svg width="29" height="29" viewBox="0 0 29 29" fill="none" xmlns="http://www.w3.org/2000/svg">
<path fill-rule="evenodd" clip-rule="evenodd" d="M6.75343 3.75835C6 4.51671 6 5.73576 6 8.17647V19.8235C6 22.2642 6 23.4833 6.75343 24.2416C7.50686 25 8.718 25 11.1429 25H18.8571C21.282 25 22.4931 25 23.2466 24.2416C24 23.4833 24 22.2642 24 19.8235V8.17647C24 5.73576 24 4.51671 23.2466 3.75835C22.4931 3 21.282 3 18.8571 3H11.1429C8.718 3 7.50686 3 6.75343 3.75835ZM11.1429 8.17647C10.8019 8.17647 10.4748 8.31282 10.2337 8.55551C9.9926 8.7982 9.85714 9.12737 9.85714 9.47059C9.85714 9.81381 9.9926 10.143 10.2337 10.3857C10.4748 10.6284 10.8019 10.7647 11.1429 10.7647H18.8571C19.1981 10.7647 19.5252 10.6284 19.7663 10.3857C20.0074 10.143 20.1429 9.81381 20.1429 9.47059C20.1429 9.12737 20.0074 8.7982 19.7663 8.55551C19.5252 8.31282 19.1981 8.17647 18.8571 8.17647H11.1429ZM11.1429 13.3529C10.8019 13.3529 10.4748 13.4893 10.2337 13.732C9.9926 13.9747 9.85714 14.3038 9.85714 14.6471C9.85714 14.9903 9.9926 15.3194 10.2337 15.5621C10.4748 15.8048 10.8019 15.9412 11.1429 15.9412H18.8571C19.1981 15.9412 19.5252 15.8048 19.7663 15.5621C20.0074 15.3194 20.1429 14.9903 20.1429 14.6471C20.1429 14.3038 20.0074 13.9747 19.7663 13.732C19.5252 13.4893 19.1981 13.3529 18.8571 13.3529H11.1429ZM11.1429 18.5294C10.8019 18.5294 10.4748 18.6658 10.2337 18.9084C9.9926 19.1511 9.85714 19.4803 9.85714 19.8235C9.85714 20.1668 9.9926 20.4959 10.2337 20.7386C10.4748 20.9813 10.8019 21.1176 11.1429 21.1176H16.2857C16.6267 21.1176 16.9537 20.9813 17.1949 20.7386C17.436 20.4959 17.5714 20.1668 17.5714 19.8235C17.5714 19.4803 17.436 19.1511 17.1949 18.9084C16.9537 18.6658 16.6267 18.5294 16.2857 18.5294H11.1429Z" fill="#A2A2A2"/>
</svg>
